<?xml version="1.0" encoding="UTF-8" standalone="no"?>
<!DOCTYPE svg PUBLIC "-//W3C//DTD SVG 1.1//EN" "http://www.w3.org/Graphics/SVG/1.1/DTD/svg11.dtd">
<svg version="1.1" xmlns="http://www.w3.org/2000/svg" xmlns:xlink="http://www.w3.org/1999/xlink" preserveAspectRatio="xMidYMid meet" viewBox="0 0 357.46 74.78" width="357.46" height="74.78"><defs><path d="M33.74 0.01L33.93 0.02L34.11 0.04L34.3 0.06L34.49 0.09L34.67 0.12L34.86 0.16L35.05 0.2L35.23 0.24L35.41 0.29L35.59 0.35L35.78 0.41L35.96 0.48L36.13 0.55L36.31 0.62L36.49 0.7L36.66 0.79L36.83 0.88L37 0.97L63.08 16.03L63.25 16.13L63.41 16.23L63.57 16.34L63.73 16.45L63.88 16.57L64.03 16.69L64.18 16.81L64.32 16.94L64.46 17.06L64.6 17.2L64.73 17.33L64.86 17.47L64.98 17.62L65.11 17.76L65.22 17.91L65.33 18.06L65.44 18.22L65.55 18.37L65.65 18.53L65.74 18.7L65.84 18.86L65.92 19.03L66.01 19.2L66.09 19.37L66.16 19.54L66.23 19.72L66.3 19.89L66.36 20.07L66.42 20.25L66.47 20.44L66.52 20.62L66.56 20.81L66.6 20.99L66.63 21.18L66.66 21.37L66.68 21.56L66.7 21.75L66.71 21.95L66.72 22.14L66.72 22.34L66.72 52.45L66.72 52.64L66.71 52.84L66.7 53.03L66.68 53.22L66.66 53.41L66.63 53.6L66.6 53.79L66.56 53.98L66.52 54.16L66.47 54.35L66.42 54.53L66.36 54.71L66.3 54.89L66.23 55.07L66.16 55.24L66.09 55.42L66.01 55.59L65.92 55.76L65.84 55.92L65.74 56.09L65.65 56.25L65.55 56.41L65.44 56.57L65.33 56.72L65.22 56.87L65.11 57.02L64.98 57.17L64.86 57.31L64.73 57.45L64.6 57.58L64.46 57.72L64.32 57.85L64.18 57.97L64.03 58.1L63.88 58.22L63.73 58.33L63.57 58.44L63.41 58.55L63.25 58.65L63.08 58.75L37 73.81L36.92 73.86L36.83 73.9L36.75 73.95L36.67 73.99L36.58 74.04L36.49 74.08L36.41 74.12L36.32 74.16L36.23 74.19L36.15 74.23L36.06 74.27L35.97 74.3L35.88 74.34L35.79 74.37L35.7 74.4L35.61 74.43L35.52 74.46L35.43 74.48L35.34 74.51L35.24 74.54L35.15 74.56L35.06 74.58L34.97 74.6L34.88 74.62L34.78 74.64L34.69 74.66L34.59 74.68L34.5 74.69L34.41 74.71L34.31 74.72L34.22 74.73L34.12 74.74L34.03 74.75L33.93 74.76L33.84 74.77L33.74 74.77L33.65 74.78L33.55 74.78L33.46 74.78L33.36 74.78L33.26 74.78L33.17 74.78L33.07 74.78L32.98 74.77L32.88 74.77L32.79 74.76L32.69 74.75L32.6 74.74L32.5 74.73L32.41 74.72L32.31 74.71L32.22 74.69L32.12 74.68L32.03 74.66L31.94 74.64L31.84 74.62L31.75 74.6L31.66 74.58L31.57 74.56L31.47 74.54L31.38 74.51L31.29 74.48L31.2 74.46L31.11 74.43L31.02 74.4L30.93 74.37L30.84 74.34L30.75 74.3L30.66 74.27L30.57 74.23L30.49 74.19L30.4 74.16L30.31 74.12L30.23 74.08L30.14 74.04L30.05 73.99L29.97 73.95L29.89 73.9L29.8 73.86L29.72 73.81L3.64 58.75L3.47 58.65L3.31 58.55L3.15 58.44L2.99 58.33L2.84 58.22L2.69 58.1L2.54 57.97L2.4 57.85L2.26 57.72L2.12 57.58L1.99 57.45L1.86 57.31L1.74 57.17L1.62 57.02L1.5 56.87L1.39 56.72L1.28 56.57L1.18 56.41L1.07 56.25L0.98 56.09L0.89 55.92L0.8 55.76L0.71 55.59L0.64 55.42L0.56 55.24L0.49 55.07L0.42 54.89L0.36 54.71L0.31 54.53L0.25 54.35L0.21 54.16L0.16 53.98L0.13 53.79L0.09 53.6L0.07 53.41L0.04 53.22L0.02 53.03L0.01 52.84L0 52.64L0 52.45L0 22.34L0 22.14L0.01 21.95L0.02 21.75L0.04 21.56L0.07 21.37L0.09 21.18L0.13 20.99L0.16 20.81L0.21 20.62L0.25 20.44L0.31 20.25L0.36 20.07L0.42 19.89L0.49 19.72L0.56 19.54L0.64 19.37L0.71 19.2L0.8 19.03L0.89 18.86L0.98 18.7L1.07 18.53L1.18 18.37L1.28 18.22L1.39 18.06L1.5 17.91L1.62 17.76L1.74 17.62L1.86 17.47L1.99 17.33L2.12 17.2L2.26 17.06L2.4 16.94L2.54 16.81L2.69 16.69L2.84 16.57L2.99 16.45L3.15 16.34L3.31 16.23L3.47 16.13L3.64 16.03L29.72 0.97L29.89 0.88L30.06 0.79L30.23 0.7L30.41 0.62L30.59 0.55L30.76 0.48L30.94 0.41L31.12 0.35L31.31 0.29L31.49 0.24L31.67 0.2L31.86 0.16L32.05 0.12L32.23 0.09L32.42 0.06L32.61 0.04L32.79 0.02L32.98 0.01L33.17 0L33.36 0L33.55 0L33.74 0.01ZM33.26 3.64L33.22 3.64L33.17 3.64L33.12 3.65L33.07 3.65L33.03 3.65L32.98 3.66L32.93 3.66L32.88 3.67L32.84 3.68L32.79 3.68L32.74 3.69L32.7 3.7L32.65 3.71L32.6 3.72L32.56 3.73L32.51 3.74L32.46 3.75L32.42 3.76L32.37 3.78L32.33 3.79L32.28 3.8L32.24 3.82L32.19 3.83L32.15 3.85L32.1 3.86L32.06 3.88L32.01 3.9L31.97 3.92L31.92 3.93L31.88 3.95L31.84 3.97L31.79 3.99L31.75 4.01L31.71 4.04L31.66 4.06L31.62 4.08L31.58 4.1L31.54 4.13L5.46 19.18L5.38 19.23L5.3 19.28L5.22 19.34L5.14 19.39L5.06 19.45L4.99 19.51L4.91 19.57L4.84 19.63L4.77 19.7L4.7 19.77L4.64 19.83L4.57 19.9L4.51 19.98L4.45 20.05L4.39 20.12L4.34 20.2L4.28 20.28L4.23 20.35L4.18 20.43L4.13 20.51L4.08 20.6L4.04 20.68L4 20.77L3.96 20.85L3.92 20.94L3.89 21.03L3.85 21.11L3.82 21.2L3.79 21.29L3.77 21.39L3.74 21.48L3.72 21.57L3.7 21.66L3.69 21.76L3.67 21.85L3.66 21.95L3.65 22.04L3.65 22.14L3.64 22.24L3.64 22.34L3.64 52.45L3.64 52.54L3.65 52.64L3.65 52.74L3.66 52.83L3.67 52.93L3.69 53.02L3.7 53.12L3.72 53.21L3.74 53.3L3.77 53.4L3.79 53.49L3.82 53.58L3.85 53.67L3.89 53.76L3.92 53.85L3.96 53.93L4 54.02L4.04 54.1L4.08 54.19L4.13 54.27L4.18 54.35L4.23 54.43L4.28 54.51L4.34 54.58L4.39 54.66L4.45 54.73L4.51 54.81L4.57 54.88L4.64 54.95L4.7 55.02L4.77 55.08L4.84 55.15L4.91 55.21L4.99 55.27L5.06 55.33L5.14 55.39L5.22 55.45L5.3 55.5L5.38 55.55L5.46 55.6L31.54 70.66L31.62 70.7L31.71 70.75L31.8 70.79L31.88 70.83L31.97 70.87L32.06 70.91L32.15 70.94L32.24 70.97L32.33 71L32.42 71.02L32.52 71.05L32.61 71.07L32.7 71.08L32.8 71.1L32.89 71.11L32.98 71.12L33.08 71.13L33.17 71.14L33.27 71.14L33.36 71.14L33.45 71.14L33.55 71.14L33.64 71.13L33.74 71.12L33.83 71.11L33.92 71.1L34.02 71.08L34.11 71.07L34.2 71.05L34.29 71.02L34.39 71L34.48 70.97L34.57 70.94L34.66 70.91L34.75 70.87L34.84 70.83L34.92 70.79L35.01 70.75L35.1 70.7L35.18 70.66L61.26 55.6L61.34 55.55L61.43 55.5L61.51 55.45L61.59 55.39L61.66 55.33L61.74 55.27L61.81 55.21L61.88 55.15L61.95 55.08L62.02 55.02L62.09 54.95L62.15 54.88L62.21 54.81L62.27 54.73L62.33 54.66L62.39 54.58L62.44 54.51L62.49 54.43L62.55 54.35L62.59 54.27L62.64 54.19L62.68 54.1L62.73 54.02L62.76 53.93L62.8 53.85L62.84 53.76L62.87 53.67L62.9 53.58L62.93 53.49L62.96 53.4L62.98 53.3L63 53.21L63.02 53.12L63.04 53.02L63.05 52.93L63.06 52.83L63.07 52.74L63.08 52.64L63.08 52.54L63.08 52.45L63.08 22.34L63.08 22.24L63.08 22.14L63.07 22.04L63.06 21.95L63.05 21.85L63.04 21.76L63.02 21.66L63 21.57L62.98 21.48L62.96 21.39L62.93 21.29L62.9 21.2L62.87 21.11L62.84 21.03L62.8 20.94L62.76 20.85L62.73 20.77L62.68 20.68L62.64 20.6L62.59 20.51L62.55 20.43L62.49 20.35L62.44 20.28L62.39 20.2L62.33 20.12L62.27 20.05L62.21 19.98L62.15 19.9L62.09 19.83L62.02 19.77L61.95 19.7L61.88 19.63L61.81 19.57L61.74 19.51L61.66 19.45L61.59 19.39L61.51 19.34L61.43 19.28L61.34 19.23L61.26 19.18L35.18 4.13L35.14 4.1L35.1 4.08L35.05 4.06L35.01 4.04L34.97 4.01L34.93 3.99L34.88 3.97L34.84 3.95L34.8 3.93L34.75 3.92L34.71 3.9L34.66 3.88L34.62 3.86L34.57 3.85L34.53 3.83L34.48 3.82L34.44 3.8L34.39 3.79L34.35 3.78L34.3 3.76L34.26 3.75L34.21 3.74L34.16 3.73L34.12 3.72L34.07 3.71L34.02 3.7L33.98 3.69L33.93 3.68L33.88 3.68L33.84 3.67L33.79 3.66L33.74 3.66L33.69 3.65L33.65 3.65L33.6 3.65L33.55 3.64L33.5 3.64L33.46 3.64L33.41 3.64L33.36 3.64L33.31 3.64L33.26 3.64Z" id="d1UQregeVO"></path><linearGradient id="gradientb2VoJeCjs" gradientUnits="userSpaceOnUse" x1="69.76" y1="6.12" x2="-7.82" y2="72.77"><stop style="stop-color: #a44c9f;stop-opacity: 1" offset="0%"></stop><stop style="stop-color: #ad479b;stop-opacity: 1" offset="12%"></stop><stop style="stop-color: #c73a92;stop-opacity: 1" offset="31%"></stop><stop style="stop-color: #f02482;stop-opacity: 1" offset="56.00000000000001%"></stop><stop style="stop-color: #f22381;stop-opacity: 1" offset="56.99999999999999%"></stop><stop style="stop-color: #feac00;stop-opacity: 1" offset="99%"></stop></linearGradient><path d="M25.17 60.26C23.96 59.56 14.31 53.99 13.1 53.29C10.85 51.99 9.47 49.58 9.46 46.98C9.46 45.07 9.46 29.72 9.46 27.8C9.47 25.2 10.85 22.8 13.1 21.49C14.31 20.79 23.96 15.22 25.16 14.53C26.03 14.02 27.15 14.31 27.65 15.18C28.16 16.05 27.87 17.16 27 17.67C27 17.67 26.99 17.68 26.98 17.68C25.78 18.38 16.13 23.95 14.92 24.64C13.8 25.3 13.1 26.5 13.1 27.8C13.1 29.72 13.1 45.07 13.1 46.98C13.1 48.29 13.8 49.49 14.92 50.14C16.13 50.83 25.78 56.4 26.98 57.1C27.85 57.6 28.15 58.72 27.65 59.59C27.32 60.15 26.72 60.5 26.07 60.5C25.76 60.5 25.44 60.42 25.17 60.26Z" id="f13LxruhEn"></path><linearGradient id="gradienta2ey4oMjc" gradientUnits="userSpaceOnUse" x1="65.79" y1="1.51" x2="-11.79" y2="68.16"><stop style="stop-color: #a44c9f;stop-opacity: 1" offset="0%"></stop><stop style="stop-color: #ad479b;stop-opacity: 1" offset="12%"></stop><stop style="stop-color: #c73a92;stop-opacity: 1" offset="31%"></stop><stop style="stop-color: #f02482;stop-opacity: 1" offset="56.00000000000001%"></stop><stop style="stop-color: #f22381;stop-opacity: 1" offset="56.99999999999999%"></stop><stop style="stop-color: #feac00;stop-opacity: 1" offset="99%"></stop></linearGradient><path d="M38.82 58.68C38.82 58.03 39.17 57.43 39.73 57.1C40.94 56.4 50.59 50.83 51.8 50.14C52.92 49.49 53.62 48.29 53.62 46.98C53.62 45.07 53.62 29.72 53.62 27.8C53.62 26.5 52.92 25.3 51.8 24.64C50.59 23.95 40.94 18.38 39.73 17.68C38.86 17.18 38.55 16.07 39.05 15.2C39.54 14.32 40.66 14.02 41.53 14.52C41.54 14.52 41.54 14.52 41.55 14.53C42.76 15.22 52.41 20.79 53.61 21.49C55.86 22.79 57.25 25.2 57.25 27.8C57.25 29.72 57.25 45.07 57.25 46.98C57.25 49.59 55.86 51.99 53.61 53.29C52.41 53.99 42.76 59.56 41.55 60.26C41.28 60.42 40.96 60.5 40.65 60.5C39.64 60.5 38.82 59.69 38.82 58.68Z" id="l3YHqthXmR"></path><linearGradient id="gradienta8J0BTcIoM" gradientUnits="userSpaceOnUse" x1="73.72" y1="10.73" x2="-3.86" y2="77.39"><stop style="stop-color: #a44c9f;stop-opacity: 1" offset="0%"></stop><stop style="stop-color: #ad479b;stop-opacity: 1" offset="12%"></stop><stop style="stop-color: #c73a92;stop-opacity: 1" offset="31%"></stop><stop style="stop-color: #f02482;stop-opacity: 1" offset="56.00000000000001%"></stop><stop style="stop-color: #f22381;stop-opacity: 1" offset="56.99999999999999%"></stop><stop style="stop-color: #feac00;stop-opacity: 1" offset="99%"></stop></linearGradient><path d="M24.31 47.59C24.31 47.21 24.43 46.84 24.65 46.53C26.11 44.49 37.76 28.17 39.22 26.13C39.8 25.32 40.94 25.13 41.76 25.71C42.58 26.3 42.77 27.44 42.18 28.25C40.72 30.29 29.07 46.61 27.61 48.65C27.27 49.13 26.72 49.41 26.13 49.41C25.12 49.41 24.31 48.59 24.31 47.59Z" id="b98vkgyQX"></path><linearGradient id="gradiente6wZV1Cul6" gradientUnits="userSpaceOnUse" x1="69.78" y1="6.14" x2="-7.8" y2="72.8"><stop style="stop-color: #a44c9f;stop-opacity: 1" offset="0%"></stop><stop style="stop-color: #ad479b;stop-opacity: 1" offset="12%"></stop><stop style="stop-color: #c73a92;stop-opacity: 1" offset="31%"></stop><stop style="stop-color: #f02482;stop-opacity: 1" offset="56.00000000000001%"></stop><stop style="stop-color: #f22381;stop-opacity: 1" offset="56.99999999999999%"></stop><stop style="stop-color: #feac00;stop-opacity: 1" offset="99%"></stop></linearGradient><path d="M105.6 29.31C105.6 29.31 105.6 29.31 105.6 29.32C105.6 29.73 105.6 31.79 105.6 35.51L96.35 35.51C96.35 31.79 96.35 29.73 96.35 29.32C96.38 28.38 95.65 27.6 94.72 27.56C94.68 27.56 94.65 27.56 94.61 27.56C93.33 27.56 92.6 28.29 92.6 29.32C92.6 30.93 92.6 43.84 92.6 45.45C92.6 46.45 93.32 47.21 94.61 47.21C95.56 47.22 96.33 46.47 96.35 45.53C96.35 45.5 96.35 45.48 96.35 45.45C96.35 45.04 96.35 42.96 96.35 39.23L105.6 39.23C105.6 42.97 105.6 45.04 105.6 45.46C105.66 46.47 106.52 47.26 107.53 47.22C108.49 47.23 109.28 46.47 109.29 45.52C109.29 45.5 109.29 45.48 109.29 45.46C109.29 43.84 109.29 30.94 109.29 29.32C109.32 28.38 108.58 27.59 107.64 27.56C107.6 27.56 107.57 27.56 107.53 27.56C106.52 27.51 105.65 28.29 105.6 29.31Z" id="a6GZ6zZ96"></path><path d="M116.99 43.5L116.99 39.23C121.28 39.23 123.67 39.23 124.14 39.23C126.67 39.23 126.67 35.52 124.14 35.52C123.67 35.52 121.28 35.52 116.99 35.52L116.99 31.25C121.9 31.25 124.62 31.25 125.17 31.25C127.72 31.25 127.78 27.57 125.17 27.57C124.15 27.57 115.99 27.57 114.97 27.57C114.02 27.54 113.23 28.29 113.21 29.23C113.21 29.26 113.21 29.29 113.21 29.32C113.21 30.94 113.21 43.84 113.21 45.46C113.19 46.42 113.96 47.2 114.92 47.22C114.93 47.22 114.95 47.22 114.97 47.22C116.04 47.22 124.58 47.22 125.65 47.22C128.43 47.22 128.23 43.5 125.65 43.5C124.49 43.5 121.61 43.5 116.99 43.5Z" id="a1IfDGTxn"></path><path d="M141.07 28.6C140.34 27.04 138.31 27.1 137.54 28.6C136.73 30.2 130.21 42.94 129.4 44.53C128.89 45.52 129.27 46.72 130.25 47.23C130.27 47.24 130.29 47.25 130.3 47.26C131.33 47.46 132.38 47.26 132.83 46.29C133.26 45.41 135.42 40.98 139.31 33.02C143.19 40.98 145.35 45.4 145.78 46.28C146.8 48.51 150.24 46.75 149.08 44.53C147.47 41.35 141.87 30.2 141.07 28.6Z" id="a3S2z43kI"></path><path d="M165.17 28.81L167 30.22L168.37 32L169.27 34.05L169.72 36.26L169.72 38.52L169.27 40.73L168.37 42.78L167.03 44.56L165.25 45.96L163.03 46.88L160.38 47.21L153.62 47.21L153.4 47.2L153.19 47.17L152.97 47.13L152.76 47.06L152.57 46.97L152.38 46.86L152.21 46.73L152.05 46.58L151.92 46.4L151.81 46.2L151.73 45.97L151.68 45.73L151.66 45.45L151.66 29.32L151.68 29.09L151.73 28.86L151.81 28.66L151.92 28.46L152.05 28.29L152.21 28.13L152.38 27.98L152.57 27.86L152.76 27.75L152.97 27.67L153.19 27.61L153.4 27.57L153.62 27.56L160.12 27.56L162.88 27.89L165.17 28.81ZM155.41 43.74L156.51 43.74L157.47 43.75L158.28 43.75L158.94 43.75L159.46 43.75L159.83 43.75L160.05 43.75L160.12 43.75L162.65 43.2L164.48 41.76L165.6 39.73L166 37.39L165.66 35.05L164.58 33.02L162.74 31.58L160.12 31.03L155.41 31.03L155.41 43.74Z" id="lVycK1eKz"></path><path d="M176.57 43.51C176.57 34.97 176.57 30.23 176.57 29.28C176.57 28.35 175.82 27.58 174.89 27.55C173.92 27.54 173.12 28.31 173.1 29.28C173.1 30.91 173.1 43.88 173.1 45.5C173.09 46.45 173.86 47.23 174.81 47.23C174.83 47.23 174.86 47.23 174.89 47.23C175.83 47.23 183.35 47.23 184.29 47.23C187.13 47.22 187.07 43.51 184.29 43.51C183.26 43.51 180.68 43.51 176.57 43.51Z" id="b1YvqlVlUQ"></path><path d="M193.05 43.5L193.05 39.23C197.35 39.23 199.73 39.23 200.21 39.23C202.74 39.23 202.74 35.52 200.21 35.52C199.73 35.52 197.35 35.52 193.05 35.52L193.05 31.25C197.96 31.25 200.68 31.25 201.23 31.25C203.78 31.25 203.84 27.57 201.23 27.57C200.21 27.57 192.05 27.57 191.03 27.57C190.09 27.54 189.3 28.28 189.27 29.23C189.27 29.26 189.27 29.29 189.27 29.32C189.27 30.94 189.27 43.84 189.27 45.46C189.26 46.41 190.02 47.2 190.97 47.22C190.99 47.22 191.01 47.22 191.03 47.22C192.1 47.22 200.64 47.22 201.71 47.22C204.51 47.22 204.31 43.5 201.72 43.5C200.57 43.5 197.68 43.5 193.05 43.5Z" id="exNpnwdQI"></path><path d="M217.51 31.27C219.22 32.52 221.26 30.05 219.33 28.49C215.41 25.48 207.1 26.47 206.44 31.98C205.56 40.04 217.37 37.52 217.73 41.72C217.31 45.75 211.31 44.56 208.99 42.97C208.02 42.18 207.2 42.43 206.46 43.17C205.87 44.06 206.04 45.26 206.86 45.95C210.78 49.19 221.23 49.02 221.43 41.81C221.63 34.25 209.28 36.92 210.04 32.26C210.64 29.31 215.41 29.94 217.51 31.27Z" id="c2in0oboaX"></path><path d="M235.43 31.27C237.13 32.52 239.18 30.05 237.25 28.49C233.33 25.48 225.01 26.47 224.36 31.98C223.48 40.04 235.28 37.52 235.65 41.72C235.22 45.75 229.23 44.56 226.91 42.97C225.94 42.18 225.12 42.43 224.38 43.17C223.78 44.06 223.95 45.26 224.78 45.95C228.7 49.19 239.15 49.02 239.35 41.81C239.55 34.25 227.2 36.92 227.96 32.26C228.56 29.31 233.33 29.94 235.43 31.27Z" id="bLXCc9Nrj"></path><path d="M285.18 29.19C285.18 29.92 285.18 33.59 285.18 40.2C279.54 33.15 276.41 29.23 275.78 28.45C275.01 27.72 274.78 27.45 273.76 27.45C272.3 27.45 272.06 28.45 272.06 29.47C272.06 31.04 272.06 43.6 272.06 45.17C272.01 46.2 272.81 47.08 273.84 47.13C273.89 47.13 273.94 47.13 273.99 47.13C275.01 47.13 275.78 46.4 275.78 45.17C275.78 44.44 275.78 40.79 275.78 34.21C281.43 41.36 284.57 45.34 285.19 46.13C286.02 46.9 286.5 47.13 287.49 47.13C288.22 46.9 289 46.4 289 45.17C289 43.57 289 30.78 289 29.19C288.9 28.12 288.04 27.29 286.97 27.23C286 27.23 285.18 28.25 285.18 29.19Z" id="a9bgFcICn"></path><path d="M293.13 45.4C293.13 47.82 296.88 47.76 296.88 45.4C296.88 43.78 296.88 30.81 296.88 29.19C296.88 26.77 293.13 26.86 293.13 29.19C293.13 32.43 293.13 43.78 293.13 45.4Z" id="a3ymLh4qQ2"></path><path d="M314.23 29.19C314.23 29.92 314.23 33.59 314.23 40.2C308.59 33.15 305.45 29.23 304.83 28.45C304.06 27.72 303.83 27.45 302.81 27.45C301.33 27.45 301.11 28.45 301.11 29.47C301.11 31.04 301.11 43.6 301.11 45.17C301.06 46.2 301.85 47.08 302.88 47.13C302.93 47.13 302.99 47.13 303.04 47.13C304.06 47.13 304.83 46.4 304.83 45.17C304.83 44.44 304.83 40.79 304.83 34.21C310.47 41.36 313.6 45.34 314.23 46.13C315.05 46.9 315.53 47.13 316.53 47.13C317.26 46.9 318.03 46.4 318.03 45.17C318.03 43.57 318.03 30.78 318.03 29.19C317.93 28.12 317.08 27.29 316.01 27.23C315.05 27.23 314.23 28.25 314.23 29.19Z" id="a1Or2KWtus"></path><path d="M330.95 40.4C330.92 43.21 329.53 43.92 327.94 43.98C326.69 44.04 325.41 43.7 324.22 42.22C322.74 40.4 320.02 42.9 321.47 44.63C323.23 46.9 325.24 47.54 327.66 47.54C332.57 47.54 334.7 44.85 334.7 40.39C334.7 39.27 334.7 30.31 334.7 29.19C334.7 26.8 330.95 26.8 330.95 29.19C330.95 31.43 330.95 39.28 330.95 40.4Z" id="e9uG1UCeb"></path><path d="M349.21 28.48C348.48 26.91 346.45 26.97 345.68 28.48C344.87 30.07 338.35 42.81 337.53 44.41C337.03 45.39 337.41 46.59 338.39 47.1C338.41 47.11 338.43 47.12 338.44 47.13C339.47 47.33 340.52 47.13 340.97 46.16C341.41 45.28 343.57 40.86 347.47 32.9C351.35 40.86 353.51 45.28 353.94 46.16C354.95 48.38 358.39 46.62 357.22 44.41C355.62 41.22 350.01 30.07 349.21 28.48Z" id="aOesTRR3"></path><path d="M246.46 47.59C246.46 47.21 246.58 46.84 246.8 46.53C248.26 44.49 259.91 28.17 261.37 26.13C261.96 25.32 263.09 25.13 263.91 25.71C264.73 26.3 264.92 27.44 264.34 28.25C262.88 30.29 251.22 46.61 249.77 48.65C249.43 49.13 248.87 49.41 248.28 49.41C247.28 49.41 246.46 48.59 246.46 47.59Z" id="a4svRw19pK"></path><linearGradient id="gradiente1T6piLKbP" gradientUnits="userSpaceOnUse" x1="291.94" y1="6.15" x2="214.36" y2="72.8"><stop style="stop-color: #a44c9f;stop-opacity: 1" offset="0%"></stop><stop style="stop-color: #ad479b;stop-opacity: 1" offset="12%"></stop><stop style="stop-color: #c73a92;stop-opacity: 1" offset="31%"></stop><stop style="stop-color: #f02482;stop-opacity: 1" offset="56.00000000000001%"></stop><stop style="stop-color: #f22381;stop-opacity: 1" offset="56.99999999999999%"></stop><stop style="stop-color: #feac00;stop-opacity: 1" offset="99%"></stop></linearGradient></defs><g><g><g><g><use xlink:href="#d1UQregeVO" opacity="1" fill="url(#gradientb2VoJeCjs)"></use><g><use xlink:href="#d1UQregeVO" opacity="1" fill-opacity="0" stroke="#000000" stroke-width="1" stroke-opacity="0"></use></g></g><g><use xlink:href="#f13LxruhEn" opacity="1" fill="url(#gradienta2ey4oMjc)"></use><g><use xlink:href="#f13LxruhEn" opacity="1" fill-opacity="0" stroke="#000000" stroke-width="1" stroke-opacity="0"></use></g></g><g><use xlink:href="#l3YHqthXmR" opacity="1" fill="url(#gradienta8J0BTcIoM)"></use><g><use xlink:href="#l3YHqthXmR" opacity="1" fill-opacity="0" stroke="#000000" stroke-width="1" stroke-opacity="0"></use></g></g><g><use xlink:href="#b98vkgyQX" opacity="1" fill="url(#gradiente6wZV1Cul6)"></use><g><use xlink:href="#b98vkgyQX" opacity="1" fill-opacity="0" stroke="#000000" stroke-width="1" stroke-opacity="0"></use></g></g><g><use xlink:href="#a6GZ6zZ96" opacity="1" fill="#ffffff" fill-opacity="1"></use><g><use xlink:href="#a6GZ6zZ96" opacity="1" fill-opacity="0" stroke="#000000" stroke-width="1" stroke-opacity="0"></use></g></g><g><use xlink:href="#a1IfDGTxn" opacity="1" fill="#ffffff" fill-opacity="1"></use><g><use xlink:href="#a1IfDGTxn" opacity="1" fill-opacity="0" stroke="#000000" stroke-width="1" stroke-opacity="0"></use></g></g><g><use xlink:href="#a3S2z43kI" opacity="1" fill="#ffffff" fill-opacity="1"></use><g><use xlink:href="#a3S2z43kI" opacity="1" fill-opacity="0" stroke="#000000" stroke-width="1" stroke-opacity="0"></use></g></g><g><use xlink:href="#lVycK1eKz" opacity="1" fill="#ffffff" fill-opacity="1"></use><g><use xlink:href="#lVycK1eKz" opacity="1" fill-opacity="0" stroke="#000000" stroke-width="1" stroke-opacity="0"></use></g></g><g><use xlink:href="#b1YvqlVlUQ" opacity="1" fill="#ffffff" fill-opacity="1"></use><g><use xlink:href="#b1YvqlVlUQ" opacity="1" fill-opacity="0" stroke="#000000" stroke-width="1" stroke-opacity="0"></use></g></g><g><use xlink:href="#exNpnwdQI" opacity="1" fill="#ffffff" fill-opacity="1"></use><g><use xlink:href="#exNpnwdQI" opacity="1" fill-opacity="0" stroke="#000000" stroke-width="1" stroke-opacity="0"></use></g></g><g><use xlink:href="#c2in0oboaX" opacity="1" fill="#ffffff" fill-opacity="1"></use><g><use xlink:href="#c2in0oboaX" opacity="1" fill-opacity="0" stroke="#000000" stroke-width="1" stroke-opacity="0"></use></g></g><g><use xlink:href="#bLXCc9Nrj" opacity="1" fill="#ffffff" fill-opacity="1"></use><g><use xlink:href="#bLXCc9Nrj" opacity="1" fill-opacity="0" stroke="#000000" stroke-width="1" stroke-opacity="0"></use></g></g><g><use xlink:href="#a9bgFcICn" opacity="1" fill="#ffffff" fill-opacity="1"></use><g><use xlink:href="#a9bgFcICn" opacity="1" fill-opacity="0" stroke="#000000" stroke-width="1" stroke-opacity="0"></use></g></g><g><use xlink:href="#a3ymLh4qQ2" opacity="1" fill="#ffffff" fill-opacity="1"></use><g><use xlink:href="#a3ymLh4qQ2" opacity="1" fill-opacity="0" stroke="#000000" stroke-width="1" stroke-opacity="0"></use></g></g><g><use xlink:href="#a1Or2KWtus" opacity="1" fill="#ffffff" fill-opacity="1"></use><g><use xlink:href="#a1Or2KWtus" opacity="1" fill-opacity="0" stroke="#000000" stroke-width="1" stroke-opacity="0"></use></g></g><g><use xlink:href="#e9uG1UCeb" opacity="1" fill="#ffffff" fill-opacity="1"></use><g><use xlink:href="#e9uG1UCeb" opacity="1" fill-opacity="0" stroke="#000000" stroke-width="1" stroke-opacity="0"></use></g></g><g><use xlink:href="#aOesTRR3" opacity="1" fill="#ffffff" fill-opacity="1"></use><g><use xlink:href="#aOesTRR3" opacity="1" fill-opacity="0" stroke="#000000" stroke-width="1" stroke-opacity="0"></use></g></g><g><use xlink:href="#a4svRw19pK" opacity="1" fill="url(#gradiente1T6piLKbP)"></use><g><use xlink:href="#a4svRw19pK" opacity="1" fill-opacity="0" stroke="#000000" stroke-width="1" stroke-opacity="0"></use></g></g></g></g></g></svg>