<?xml version="1.0" encoding="UTF-8" standalone="no"?>
<!DOCTYPE svg PUBLIC "-//W3C//DTD SVG 1.1//EN" "http://www.w3.org/Graphics/SVG/1.1/DTD/svg11.dtd">
<svg version="1.1" xmlns="http://www.w3.org/2000/svg" xmlns:xlink="http://www.w3.org/1999/xlink" preserveAspectRatio="xMidYMid meet" viewBox="0 0 264.86 111.62" width="264.86" height="111.62"><defs><path d="M132.81 0.01L132.99 0.02L133.18 0.04L133.37 0.06L133.56 0.09L133.74 0.12L133.93 0.16L134.11 0.2L134.3 0.25L134.48 0.3L134.66 0.35L134.84 0.41L135.02 0.48L135.2 0.55L135.38 0.62L135.55 0.71L135.73 0.79L135.9 0.88L136.07 0.97L162.15 16.03L162.32 16.13L162.48 16.23L162.64 16.34L162.8 16.45L162.95 16.57L163.1 16.69L163.25 16.81L163.39 16.94L163.53 17.07L163.67 17.2L163.8 17.34L163.93 17.48L164.05 17.62L164.17 17.76L164.29 17.91L164.4 18.06L164.51 18.22L164.62 18.38L164.72 18.54L164.81 18.7L164.91 18.86L164.99 19.03L165.08 19.2L165.16 19.37L165.23 19.54L165.3 19.72L165.37 19.9L165.43 20.08L165.49 20.26L165.54 20.44L165.58 20.62L165.63 20.81L165.67 21L165.7 21.18L165.73 21.37L165.75 21.56L165.77 21.76L165.78 21.95L165.79 22.14L165.79 22.34L165.79 52.45L165.79 52.64L165.78 52.84L165.77 53.03L165.75 53.22L165.73 53.41L165.7 53.6L165.67 53.79L165.63 53.98L165.58 54.16L165.54 54.35L165.49 54.53L165.43 54.71L165.37 54.89L165.3 55.07L165.23 55.24L165.16 55.42L165.08 55.59L164.99 55.76L164.91 55.93L164.81 56.09L164.72 56.25L164.62 56.41L164.51 56.57L164.4 56.72L164.29 56.87L164.17 57.02L164.05 57.17L163.93 57.31L163.8 57.45L163.67 57.59L163.53 57.72L163.39 57.85L163.25 57.98L163.1 58.1L162.95 58.22L162.8 58.33L162.64 58.45L162.48 58.55L162.32 58.66L162.15 58.76L136.07 73.81L135.99 73.86L135.9 73.91L135.82 73.95L135.73 74L135.65 74.04L135.56 74.08L135.48 74.12L135.39 74.16L135.3 74.2L135.21 74.23L135.13 74.27L135.04 74.3L134.95 74.34L134.86 74.37L134.77 74.4L134.68 74.43L134.59 74.46L134.5 74.49L134.4 74.51L134.31 74.54L134.22 74.56L134.13 74.59L134.04 74.61L133.94 74.63L133.85 74.65L133.76 74.66L133.66 74.68L133.57 74.7L133.48 74.71L133.38 74.72L133.29 74.74L133.19 74.75L133.1 74.75L133 74.76L132.91 74.77L132.81 74.78L132.72 74.78L132.62 74.78L132.52 74.78L132.43 74.79L132.33 74.78L132.24 74.78L132.14 74.78L132.05 74.78L131.95 74.77L131.85 74.76L131.76 74.75L131.66 74.75L131.57 74.74L131.48 74.72L131.38 74.71L131.29 74.7L131.19 74.68L131.1 74.66L131.01 74.65L130.91 74.63L130.82 74.61L130.73 74.59L130.64 74.56L130.54 74.54L130.45 74.51L130.36 74.49L130.27 74.46L130.18 74.43L130.09 74.4L130 74.37L129.91 74.34L129.82 74.3L129.73 74.27L129.64 74.23L129.55 74.2L129.47 74.16L129.38 74.12L129.29 74.08L129.21 74.04L129.12 74L129.04 73.95L128.95 73.91L128.87 73.86L128.79 73.81L102.71 58.76L102.54 58.66L102.38 58.55L102.22 58.45L102.06 58.33L101.91 58.22L101.76 58.1L101.61 57.98L101.47 57.85L101.33 57.72L101.19 57.59L101.06 57.45L100.93 57.31L100.81 57.17L100.69 57.02L100.57 56.87L100.46 56.72L100.35 56.57L100.24 56.41L100.14 56.25L100.05 56.09L99.95 55.93L99.87 55.76L99.78 55.59L99.7 55.42L99.63 55.24L99.56 55.07L99.49 54.89L99.43 54.71L99.37 54.53L99.32 54.35L99.28 54.16L99.23 53.98L99.19 53.79L99.16 53.6L99.13 53.41L99.11 53.22L99.09 53.03L99.08 52.84L99.07 52.64L99.07 52.45L99.07 22.34L99.07 22.14L99.08 21.95L99.09 21.76L99.11 21.56L99.13 21.37L99.16 21.18L99.19 21L99.23 20.81L99.28 20.62L99.32 20.44L99.37 20.26L99.43 20.08L99.49 19.9L99.56 19.72L99.63 19.54L99.7 19.37L99.78 19.2L99.87 19.03L99.95 18.86L100.05 18.7L100.14 18.54L100.24 18.38L100.35 18.22L100.46 18.06L100.57 17.91L100.69 17.76L100.81 17.62L100.93 17.48L101.06 17.34L101.19 17.2L101.33 17.07L101.47 16.94L101.61 16.81L101.76 16.69L101.91 16.57L102.06 16.45L102.22 16.34L102.38 16.23L102.54 16.13L102.71 16.03L128.79 0.97L128.96 0.88L129.13 0.79L129.3 0.71L129.48 0.62L129.65 0.55L129.83 0.48L130.01 0.41L130.19 0.35L130.38 0.3L130.56 0.25L130.74 0.2L130.93 0.16L131.11 0.12L131.3 0.09L131.49 0.06L131.67 0.04L131.86 0.02L132.05 0.01L132.24 0L132.43 0L132.62 0L132.81 0.01ZM132.33 3.64L132.28 3.64L132.24 3.65L132.19 3.65L132.14 3.65L132.09 3.66L132.05 3.66L132 3.67L131.95 3.67L131.9 3.68L131.86 3.69L131.81 3.69L131.76 3.7L131.72 3.71L131.67 3.72L131.62 3.73L131.58 3.74L131.53 3.75L131.49 3.77L131.44 3.78L131.39 3.79L131.35 3.81L131.3 3.82L131.26 3.83L131.21 3.85L131.17 3.87L131.12 3.88L131.08 3.9L131.04 3.92L130.99 3.94L130.95 3.96L130.9 3.98L130.86 4L130.82 4.02L130.78 4.04L130.73 4.06L130.69 4.08L130.65 4.11L130.61 4.13L104.53 19.18L104.45 19.23L104.37 19.29L104.29 19.34L104.21 19.4L104.13 19.45L104.05 19.51L103.98 19.57L103.91 19.64L103.84 19.7L103.77 19.77L103.71 19.84L103.64 19.91L103.58 19.98L103.52 20.05L103.46 20.13L103.4 20.2L103.35 20.28L103.3 20.36L103.25 20.44L103.2 20.52L103.15 20.6L103.11 20.68L103.07 20.77L103.03 20.85L102.99 20.94L102.95 21.03L102.92 21.12L102.89 21.21L102.86 21.3L102.84 21.39L102.81 21.48L102.79 21.57L102.77 21.67L102.76 21.76L102.74 21.86L102.73 21.95L102.72 22.05L102.72 22.14L102.71 22.24L102.71 22.34L102.71 52.45L102.71 52.55L102.72 52.64L102.72 52.74L102.73 52.84L102.74 52.93L102.76 53.03L102.77 53.12L102.79 53.21L102.81 53.31L102.84 53.4L102.86 53.49L102.89 53.58L102.92 53.67L102.95 53.76L102.99 53.85L103.03 53.93L103.07 54.02L103.11 54.1L103.15 54.19L103.2 54.27L103.25 54.35L103.3 54.43L103.35 54.51L103.4 54.59L103.46 54.66L103.52 54.74L103.58 54.81L103.64 54.88L103.71 54.95L103.77 55.02L103.84 55.09L103.91 55.15L103.98 55.21L104.05 55.27L104.13 55.33L104.21 55.39L104.29 55.45L104.37 55.5L104.45 55.55L104.53 55.6L130.61 70.66L130.69 70.71L130.78 70.75L130.86 70.79L130.95 70.83L131.04 70.87L131.13 70.91L131.22 70.94L131.31 70.97L131.4 71L131.49 71.02L131.59 71.05L131.68 71.07L131.77 71.09L131.86 71.1L131.96 71.12L132.05 71.13L132.15 71.14L132.24 71.14L132.33 71.15L132.43 71.15L132.52 71.15L132.62 71.14L132.71 71.14L132.8 71.13L132.9 71.12L132.99 71.1L133.09 71.09L133.18 71.07L133.27 71.05L133.36 71.02L133.45 71L133.55 70.97L133.64 70.94L133.73 70.91L133.82 70.87L133.9 70.83L133.99 70.79L134.08 70.75L134.16 70.71L134.25 70.66L160.33 55.6L160.41 55.55L160.49 55.5L160.57 55.45L160.65 55.39L160.73 55.33L160.81 55.27L160.88 55.21L160.95 55.15L161.02 55.09L161.09 55.02L161.15 54.95L161.22 54.88L161.28 54.81L161.34 54.74L161.4 54.66L161.46 54.59L161.51 54.51L161.56 54.43L161.61 54.35L161.66 54.27L161.71 54.19L161.75 54.1L161.79 54.02L161.83 53.93L161.87 53.85L161.91 53.76L161.94 53.67L161.97 53.58L162 53.49L162.02 53.4L162.05 53.31L162.07 53.21L162.09 53.12L162.1 53.03L162.12 52.93L162.13 52.84L162.14 52.74L162.14 52.64L162.15 52.55L162.15 52.45L162.15 22.34L162.15 22.24L162.14 22.14L162.14 22.05L162.13 21.95L162.12 21.86L162.1 21.76L162.09 21.67L162.07 21.57L162.05 21.48L162.02 21.39L162 21.3L161.97 21.21L161.94 21.12L161.91 21.03L161.87 20.94L161.83 20.85L161.79 20.77L161.75 20.68L161.71 20.6L161.66 20.52L161.61 20.44L161.56 20.36L161.51 20.28L161.46 20.2L161.4 20.13L161.34 20.05L161.28 19.98L161.22 19.91L161.15 19.84L161.09 19.77L161.02 19.7L160.95 19.64L160.88 19.57L160.81 19.51L160.73 19.45L160.65 19.4L160.57 19.34L160.49 19.29L160.41 19.23L160.33 19.18L134.25 4.13L134.21 4.11L134.17 4.08L134.12 4.06L134.08 4.04L134.04 4.02L134 4L133.95 3.98L133.91 3.96L133.86 3.94L133.82 3.92L133.78 3.9L133.73 3.88L133.69 3.87L133.64 3.85L133.6 3.83L133.55 3.82L133.51 3.8L133.46 3.79L133.42 3.78L133.37 3.76L133.32 3.75L133.28 3.74L133.23 3.73L133.19 3.72L133.14 3.71L133.09 3.7L133.05 3.69L133 3.69L132.95 3.68L132.9 3.67L132.86 3.67L132.81 3.66L132.76 3.66L132.71 3.65L132.67 3.65L132.62 3.65L132.57 3.64L132.52 3.64L132.48 3.64L132.43 3.64L132.38 3.64L132.33 3.64Z" id="d8OoHHbjv"></path><linearGradient id="gradientc3uP9jLzaQ" gradientUnits="userSpaceOnUse" x1="168.83" y1="6.12" x2="91.25" y2="72.77"><stop style="stop-color: #a44c9f;stop-opacity: 1" offset="0%"></stop><stop style="stop-color: #ad479b;stop-opacity: 1" offset="12%"></stop><stop style="stop-color: #c73a92;stop-opacity: 1" offset="31%"></stop><stop style="stop-color: #f02482;stop-opacity: 1" offset="56.00000000000001%"></stop><stop style="stop-color: #f22381;stop-opacity: 1" offset="56.99999999999999%"></stop><stop style="stop-color: #feac00;stop-opacity: 1" offset="99%"></stop></linearGradient><path d="M124.95 60.26C123.75 59.56 114.1 53.99 112.89 53.29C110.64 51.99 109.25 49.59 109.25 46.99C109.25 45.07 109.25 29.72 109.25 27.8C109.25 25.2 110.64 22.8 112.89 21.49C114.1 20.8 123.74 15.23 124.95 14.53C125.82 14.02 126.93 14.31 127.44 15.18C127.95 16.05 127.66 17.16 126.79 17.67C126.78 17.68 126.78 17.68 126.77 17.68C125.56 18.38 115.92 23.95 114.71 24.65C113.59 25.3 112.89 26.5 112.89 27.8C112.89 29.72 112.89 45.07 112.89 46.99C112.89 48.29 113.59 49.49 114.71 50.14C115.92 50.84 125.56 56.41 126.77 57.1C127.64 57.61 127.94 58.72 127.44 59.59C127.11 60.15 126.51 60.5 125.86 60.5C125.54 60.5 125.23 60.42 124.95 60.26Z" id="e7a9HkjBC9"></path><linearGradient id="gradientameUybDNW" gradientUnits="userSpaceOnUse" x1="165.58" y1="1.51" x2="88" y2="68.16"><stop style="stop-color: #a44c9f;stop-opacity: 1" offset="0%"></stop><stop style="stop-color: #ad479b;stop-opacity: 1" offset="12%"></stop><stop style="stop-color: #c73a92;stop-opacity: 1" offset="31%"></stop><stop style="stop-color: #f02482;stop-opacity: 1" offset="56.00000000000001%"></stop><stop style="stop-color: #f22381;stop-opacity: 1" offset="56.99999999999999%"></stop><stop style="stop-color: #feac00;stop-opacity: 1" offset="99%"></stop></linearGradient><path d="M137.89 58.68C137.89 58.03 138.24 57.43 138.8 57.1C140.01 56.41 149.66 50.84 150.86 50.14C151.99 49.49 152.68 48.29 152.68 46.99C152.68 45.07 152.68 29.72 152.68 27.8C152.68 26.5 151.99 25.3 150.86 24.65C149.66 23.95 140 18.38 138.8 17.68C137.92 17.19 137.62 16.08 138.11 15.2C138.61 14.33 139.72 14.02 140.6 14.52C140.6 14.52 140.61 14.53 140.62 14.53C141.82 15.23 151.47 20.8 152.68 21.49C154.93 22.8 156.32 25.2 156.32 27.8C156.32 29.72 156.32 45.07 156.32 46.99C156.32 49.59 154.93 51.99 152.68 53.29C151.47 53.99 141.82 59.56 140.62 60.26C140.34 60.42 140.03 60.5 139.72 60.5C138.71 60.5 137.89 59.69 137.89 58.68Z" id="e2mSluwqG"></path><linearGradient id="gradientb5z6tHwva" gradientUnits="userSpaceOnUse" x1="172.79" y1="10.74" x2="95.21" y2="77.39"><stop style="stop-color: #a44c9f;stop-opacity: 1" offset="0%"></stop><stop style="stop-color: #ad479b;stop-opacity: 1" offset="12%"></stop><stop style="stop-color: #c73a92;stop-opacity: 1" offset="31%"></stop><stop style="stop-color: #f02482;stop-opacity: 1" offset="56.00000000000001%"></stop><stop style="stop-color: #f22381;stop-opacity: 1" offset="56.99999999999999%"></stop><stop style="stop-color: #feac00;stop-opacity: 1" offset="99%"></stop></linearGradient><path d="M123.38 47.59C123.38 47.21 123.5 46.84 123.72 46.53C125.17 44.49 136.83 28.18 138.28 26.14C138.87 25.32 140.01 25.13 140.83 25.71C141.64 26.3 141.83 27.44 141.25 28.26C139.79 30.3 128.14 46.61 126.68 48.65C126.34 49.13 125.78 49.41 125.2 49.41C124.19 49.41 123.38 48.59 123.38 47.59Z" id="a361du3Gzx"></path><linearGradient id="gradienta2MxrSTehS" gradientUnits="userSpaceOnUse" x1="168.85" y1="6.15" x2="91.27" y2="72.8"><stop style="stop-color: #a44c9f;stop-opacity: 1" offset="0%"></stop><stop style="stop-color: #ad479b;stop-opacity: 1" offset="12%"></stop><stop style="stop-color: #c73a92;stop-opacity: 1" offset="31%"></stop><stop style="stop-color: #f02482;stop-opacity: 1" offset="56.00000000000001%"></stop><stop style="stop-color: #f22381;stop-opacity: 1" offset="56.99999999999999%"></stop><stop style="stop-color: #feac00;stop-opacity: 1" offset="99%"></stop></linearGradient><path d="M13.01 91.52C13.01 91.53 13.01 91.53 13.01 91.53C13.01 91.94 13.01 94.01 13.01 97.72L3.75 97.72C3.75 94.01 3.75 91.94 3.75 91.53C3.79 90.6 3.06 89.81 2.12 89.77C2.09 89.77 2.05 89.77 2.02 89.77C0.74 89.77 0 90.5 0 91.53C0 93.15 0 106.05 0 107.67C0 108.66 0.73 109.42 2.02 109.42C2.96 109.44 3.73 108.69 3.75 107.74C3.75 107.72 3.75 107.69 3.75 107.67C3.75 107.25 3.75 105.18 3.75 101.45L13.01 101.45C13.01 105.18 13.01 107.26 13.01 107.67C13.06 108.69 13.92 109.47 14.94 109.43C15.89 109.45 16.68 108.69 16.7 107.73C16.7 107.71 16.7 107.69 16.7 107.67C16.7 106.06 16.7 93.15 16.7 91.54C16.73 90.59 15.98 89.8 15.04 89.77C15.01 89.77 14.97 89.77 14.94 89.77C13.92 89.72 13.06 90.51 13.01 91.52Z" id="h11SV9EUby"></path><path d="M24.39 105.71L24.39 101.45C28.68 101.45 31.07 101.45 31.55 101.45C34.07 101.45 34.07 97.73 31.55 97.73C31.07 97.73 28.68 97.73 24.39 97.73L24.39 93.47C29.3 93.47 32.03 93.47 32.57 93.47C35.12 93.47 35.18 89.78 32.57 89.78C31.55 89.78 23.39 89.78 22.37 89.78C21.43 89.75 20.64 90.5 20.61 91.45C20.61 91.48 20.61 91.51 20.61 91.54C20.61 93.15 20.61 106.06 20.61 107.67C20.6 108.63 21.36 109.42 22.32 109.43C22.34 109.43 22.35 109.43 22.37 109.43C23.44 109.43 31.98 109.43 33.05 109.43C35.84 109.44 35.63 105.71 33.05 105.71C31.9 105.71 29.01 105.71 24.39 105.71Z" id="eAinZvKtr"></path><path d="M48.47 90.82C47.74 89.26 45.71 89.31 44.95 90.82C44.13 92.41 37.61 105.15 36.8 106.75C36.29 107.73 36.67 108.94 37.66 109.45C37.67 109.46 37.69 109.46 37.71 109.47C38.73 109.67 39.78 109.47 40.23 108.51C40.67 107.62 42.82 103.2 46.71 95.24C50.6 103.19 52.76 107.61 53.19 108.5C54.2 110.72 57.64 108.96 56.48 106.75C54.88 103.56 49.27 92.41 48.47 90.82Z" id="c1KrG9lz9G"></path><path d="M72.58 91.03L74.4 92.43L75.77 94.21L76.68 96.26L77.13 98.47L77.13 100.74L76.67 102.95L75.78 104.99L74.44 106.77L72.65 108.18L70.43 109.1L67.78 109.42L61.02 109.42L60.81 109.42L60.59 109.39L60.37 109.34L60.17 109.27L59.97 109.18L59.78 109.07L59.61 108.94L59.46 108.79L59.32 108.61L59.21 108.41L59.13 108.19L59.08 107.94L59.07 107.67L59.07 91.53L59.08 91.3L59.13 91.08L59.21 90.87L59.32 90.68L59.46 90.5L59.61 90.34L59.78 90.2L59.97 90.07L60.17 89.97L60.37 89.88L60.59 89.82L60.81 89.79L61.02 89.77L67.53 89.77L70.29 90.1L72.58 91.03ZM62.81 105.96L63.92 105.96L64.87 105.96L65.68 105.96L66.35 105.96L66.86 105.96L67.23 105.96L67.45 105.96L67.53 105.96L70.05 105.42L71.89 103.98L73.01 101.94L73.4 99.6L73.07 97.27L71.98 95.23L70.14 93.79L67.53 93.24L62.81 93.24L62.81 105.96Z" id="a38XaogUew"></path><path d="M83.97 105.72C83.97 97.19 83.97 92.45 83.97 91.5C83.97 90.56 83.23 89.79 82.29 89.77C81.32 89.76 80.52 90.53 80.5 91.5C80.5 93.12 80.5 106.09 80.5 107.72C80.49 108.67 81.26 109.44 82.21 109.45C82.24 109.45 82.26 109.45 82.29 109.45C83.23 109.45 90.75 109.45 91.69 109.45C94.53 109.44 94.48 105.72 91.69 105.72C90.66 105.72 88.09 105.72 83.97 105.72Z" id="bEa3c6baO"></path><path d="M100.46 105.71L100.46 101.45C104.75 101.45 107.13 101.45 107.61 101.45C110.14 101.45 110.14 97.73 107.61 97.73C107.13 97.73 104.75 97.73 100.46 97.73L100.46 93.47C105.36 93.47 108.09 93.47 108.63 93.47C111.18 93.47 111.25 89.78 108.63 89.78C107.61 89.78 99.45 89.78 98.43 89.78C97.49 89.75 96.7 90.5 96.68 91.44C96.67 91.48 96.67 91.51 96.68 91.54C96.68 93.15 96.68 106.06 96.68 107.67C96.66 108.63 97.42 109.42 98.38 109.43C98.39 109.43 98.41 109.43 98.43 109.43C99.5 109.43 108.04 109.43 109.11 109.43C111.91 109.44 111.71 105.71 109.13 105.71C107.97 105.71 105.08 105.71 100.46 105.71Z" id="ckxVzXBkp"></path><path d="M124.91 93.48C126.62 94.73 128.66 92.26 126.74 90.7C122.82 87.69 114.5 88.68 113.84 94.19C112.97 102.26 124.77 99.73 125.13 103.94C124.71 107.96 118.72 106.77 116.39 105.19C115.43 104.39 114.6 104.65 113.86 105.38C113.27 106.28 113.44 107.48 114.26 108.17C118.18 111.4 128.63 111.23 128.83 104.02C129.03 96.46 116.68 99.13 117.44 94.47C118.04 91.52 122.81 92.15 124.91 93.48Z" id="a5jPHLSvEB"></path><path d="M142.83 93.48C144.54 94.73 146.58 92.26 144.65 90.7C140.73 87.69 132.41 88.68 131.76 94.19C130.88 102.26 142.69 99.73 143.05 103.94C142.62 107.96 136.63 106.77 134.31 105.19C133.35 104.39 132.52 104.65 131.78 105.38C131.19 106.28 131.36 107.48 132.18 108.17C136.1 111.4 146.55 111.23 146.75 104.02C146.95 96.46 134.6 99.13 135.36 94.47C135.96 91.52 140.73 92.15 142.83 93.48Z" id="aCCJMDyWB"></path><path d="M192.58 91.4C192.58 92.14 192.58 95.81 192.58 102.42C186.94 95.36 183.81 91.45 183.18 90.66C182.41 89.93 182.19 89.67 181.16 89.67C179.71 89.67 179.46 90.66 179.46 91.68C179.46 93.25 179.46 105.81 179.46 107.38C179.41 108.42 180.21 109.29 181.24 109.34C181.29 109.35 181.34 109.35 181.39 109.34C182.41 109.34 183.18 108.62 183.18 107.38C183.18 106.65 183.18 103 183.18 96.43C188.83 103.58 191.97 107.55 192.6 108.35C193.42 109.11 193.9 109.34 194.89 109.34C195.62 109.11 196.4 108.61 196.4 107.38C196.4 105.78 196.4 93 196.4 91.4C196.3 90.33 195.44 89.5 194.37 89.44C193.4 89.44 192.58 90.46 192.58 91.4Z" id="faB05BoVe"></path><path d="M200.53 107.62C200.53 110.03 204.28 109.97 204.28 107.62C204.28 106 204.28 93.02 204.28 91.4C204.28 88.99 200.53 89.07 200.53 91.4C200.53 94.64 200.53 106 200.53 107.62Z" id="c14Swz9j0p"></path><path d="M221.63 91.4C221.63 92.14 221.63 95.81 221.63 102.42C215.99 95.36 212.86 91.45 212.23 90.66C211.46 89.93 211.23 89.67 210.21 89.67C208.74 89.67 208.51 90.66 208.51 91.68C208.51 93.25 208.51 105.81 208.51 107.38C208.46 108.42 209.25 109.29 210.28 109.34C210.34 109.35 210.39 109.35 210.44 109.34C211.46 109.34 212.23 108.62 212.23 107.38C212.23 106.65 212.23 103 212.23 96.43C217.87 103.58 221 107.55 221.63 108.35C222.45 109.11 222.94 109.34 223.93 109.34C224.66 109.11 225.43 108.61 225.43 107.38C225.43 105.78 225.43 93 225.43 91.4C225.34 90.34 224.48 89.51 223.42 89.44C222.45 89.44 221.63 90.46 221.63 91.4Z" id="c3Qp7cS1K0"></path><path d="M238.36 102.61C238.33 105.43 236.94 106.14 235.34 106.19C234.09 106.25 232.82 105.91 231.63 104.43C230.15 102.61 227.42 105.12 228.87 106.85C230.63 109.12 232.64 109.76 235.06 109.76C239.97 109.76 242.1 107.06 242.1 102.6C242.1 101.48 242.1 92.52 242.1 91.4C242.1 89.02 238.36 89.02 238.36 91.4C238.36 93.64 238.36 101.49 238.36 102.61Z" id="a2YHNTYk2w"></path><path d="M256.61 90.69C255.88 89.13 253.86 89.18 253.09 90.69C252.27 92.28 245.75 105.03 244.94 106.62C244.43 107.6 244.81 108.81 245.79 109.32C245.81 109.33 245.83 109.34 245.85 109.34C246.87 109.54 247.92 109.34 248.37 108.38C248.81 107.5 250.97 103.08 254.87 95.12C258.75 103.08 260.91 107.5 261.34 108.38C262.35 110.59 265.8 108.83 264.62 106.62C263.02 103.43 257.41 92.28 256.61 90.69Z" id="a24WebE7M"></path><path d="M153.87 109.8C153.87 109.42 153.99 109.05 154.21 108.74C155.66 106.7 167.32 90.39 168.77 88.35C169.36 87.53 170.5 87.34 171.32 87.93C172.13 88.51 172.32 89.65 171.74 90.47C170.28 92.51 158.63 108.82 157.17 110.86C156.83 111.34 156.27 111.63 155.68 111.62C154.68 111.62 153.86 110.81 153.87 109.8Z" id="a3gTQLxBDi"></path><linearGradient id="gradienta17fK2lV7x" gradientUnits="userSpaceOnUse" x1="199.34" y1="68.36" x2="121.76" y2="135.01"><stop style="stop-color: #a44c9f;stop-opacity: 1" offset="0%"></stop><stop style="stop-color: #ad479b;stop-opacity: 1" offset="12%"></stop><stop style="stop-color: #c73a92;stop-opacity: 1" offset="31%"></stop><stop style="stop-color: #f02482;stop-opacity: 1" offset="56.00000000000001%"></stop><stop style="stop-color: #f22381;stop-opacity: 1" offset="56.99999999999999%"></stop><stop style="stop-color: #feac00;stop-opacity: 1" offset="99%"></stop></linearGradient></defs><g><g><g><g><g><use xlink:href="#d8OoHHbjv" opacity="1" fill="url(#gradientc3uP9jLzaQ)"></use><g><use xlink:href="#d8OoHHbjv" opacity="1" fill-opacity="0" stroke="#000000" stroke-width="1" stroke-opacity="0"></use></g></g><g><use xlink:href="#e7a9HkjBC9" opacity="1" fill="url(#gradientameUybDNW)"></use><g><use xlink:href="#e7a9HkjBC9" opacity="1" fill-opacity="0" stroke="#000000" stroke-width="1" stroke-opacity="0"></use></g></g><g><use xlink:href="#e2mSluwqG" opacity="1" fill="url(#gradientb5z6tHwva)"></use><g><use xlink:href="#e2mSluwqG" opacity="1" fill-opacity="0" stroke="#000000" stroke-width="1" stroke-opacity="0"></use></g></g><g><use xlink:href="#a361du3Gzx" opacity="1" fill="url(#gradienta2MxrSTehS)"></use><g><use xlink:href="#a361du3Gzx" opacity="1" fill-opacity="0" stroke="#000000" stroke-width="1" stroke-opacity="0"></use></g></g></g><g><g><use xlink:href="#h11SV9EUby" opacity="1" fill="#ffffff" fill-opacity="1"></use><g><use xlink:href="#h11SV9EUby" opacity="1" fill-opacity="0" stroke="#000000" stroke-width="1" stroke-opacity="0"></use></g></g><g><use xlink:href="#eAinZvKtr" opacity="1" fill="#ffffff" fill-opacity="1"></use><g><use xlink:href="#eAinZvKtr" opacity="1" fill-opacity="0" stroke="#000000" stroke-width="1" stroke-opacity="0"></use></g></g><g><use xlink:href="#c1KrG9lz9G" opacity="1" fill="#ffffff" fill-opacity="1"></use><g><use xlink:href="#c1KrG9lz9G" opacity="1" fill-opacity="0" stroke="#000000" stroke-width="1" stroke-opacity="0"></use></g></g><g><use xlink:href="#a38XaogUew" opacity="1" fill="#ffffff" fill-opacity="1"></use><g><use xlink:href="#a38XaogUew" opacity="1" fill-opacity="0" stroke="#000000" stroke-width="1" stroke-opacity="0"></use></g></g><g><use xlink:href="#bEa3c6baO" opacity="1" fill="#ffffff" fill-opacity="1"></use><g><use xlink:href="#bEa3c6baO" opacity="1" fill-opacity="0" stroke="#000000" stroke-width="1" stroke-opacity="0"></use></g></g><g><use xlink:href="#ckxVzXBkp" opacity="1" fill="#ffffff" fill-opacity="1"></use><g><use xlink:href="#ckxVzXBkp" opacity="1" fill-opacity="0" stroke="#000000" stroke-width="1" stroke-opacity="0"></use></g></g><g><use xlink:href="#a5jPHLSvEB" opacity="1" fill="#ffffff" fill-opacity="1"></use><g><use xlink:href="#a5jPHLSvEB" opacity="1" fill-opacity="0" stroke="#000000" stroke-width="1" stroke-opacity="0"></use></g></g><g><use xlink:href="#aCCJMDyWB" opacity="1" fill="#ffffff" fill-opacity="1"></use><g><use xlink:href="#aCCJMDyWB" opacity="1" fill-opacity="0" stroke="#000000" stroke-width="1" stroke-opacity="0"></use></g></g><g><use xlink:href="#faB05BoVe" opacity="1" fill="#ffffff" fill-opacity="1"></use><g><use xlink:href="#faB05BoVe" opacity="1" fill-opacity="0" stroke="#000000" stroke-width="1" stroke-opacity="0"></use></g></g><g><use xlink:href="#c14Swz9j0p" opacity="1" fill="#ffffff" fill-opacity="1"></use><g><use xlink:href="#c14Swz9j0p" opacity="1" fill-opacity="0" stroke="#000000" stroke-width="1" stroke-opacity="0"></use></g></g><g><use xlink:href="#c3Qp7cS1K0" opacity="1" fill="#ffffff" fill-opacity="1"></use><g><use xlink:href="#c3Qp7cS1K0" opacity="1" fill-opacity="0" stroke="#000000" stroke-width="1" stroke-opacity="0"></use></g></g><g><use xlink:href="#a2YHNTYk2w" opacity="1" fill="#ffffff" fill-opacity="1"></use><g><use xlink:href="#a2YHNTYk2w" opacity="1" fill-opacity="0" stroke="#000000" stroke-width="1" stroke-opacity="0"></use></g></g><g><use xlink:href="#a24WebE7M" opacity="1" fill="#ffffff" fill-opacity="1"></use><g><use xlink:href="#a24WebE7M" opacity="1" fill-opacity="0" stroke="#000000" stroke-width="1" stroke-opacity="0"></use></g></g><g><use xlink:href="#a3gTQLxBDi" opacity="1" fill="url(#gradienta17fK2lV7x)"></use><g><use xlink:href="#a3gTQLxBDi" opacity="1" fill-opacity="0" stroke="#000000" stroke-width="1" stroke-opacity="0"></use></g></g></g></g></g></g></svg>